<svg width="50" height="65" viewBox="0 0 50 65" fill="none" xmlns="http://www.w3.org/2000/svg">
<circle cx="25" cy="62" r="3" fill="#144BA1"/>
<path d="M29.8963 49.5207C41.3591 47.2446 50 37.1314 50 25C50 11.1929 38.8071 0 25 0C11.1929 0 0 11.1929 0 25C0 37.1385 8.15214 47.0755 19.625 49.3438C21.2444 49.6639 22.4021 50.6652 23.4688 52.5938C24.5354 54.5223 25 57.4688 25 57.4688C25 57.4688 25.625 54.625 26.4121 52.793C27.1993 50.9611 28.5 50.0625 29.8963 49.5207Z" fill="#144BA1"/>
<path fill-rule="evenodd" clip-rule="evenodd" d="M16.8142 18.7787L17.6574 17.9246L19.6509 19.8558H17.9214L16.8142 18.7787ZM22.4379 24.0808L14.9973 31.1682L7.89787 24.0414L15.0519 16.8994L15.8125 16.1372L14.819 15.1749L6 23.9862L6.71027 24.6965L14.9289 32.9961C17.4676 30.5766 19.9052 28.226 22.4379 25.7988V24.0808Z" fill="white"/>
<path fill-rule="evenodd" clip-rule="evenodd" d="M40.2749 15.9677C31.9015 21.617 40.2749 15.9677 31.9015 21.617C27.3611 18.543 32.4221 21.9691 27.8816 18.8957L26.5201 20.1888L26.5136 21.9287L27.9614 20.559L31.9021 23.2448C34.2324 21.6733 36.6016 20.0319 38.9506 18.4954L38.9851 32.9944L40.3274 32.9971C40.2749 20.2533 40.3269 28.712 40.2749 15.9677Z" fill="white"/>
<path fill-rule="evenodd" clip-rule="evenodd" d="M24.4205 15.855C23.129 15.0135 24.4101 15.8539 23.1186 15.0125C23.1066 15.0261 23.1082 16.2728 23.1186 18.105C23.1295 20.0319 23.1164 22.5832 23.1186 25.0404C23.1224 28.9182 23.106 32.54 23.1186 32.99L24.4637 32.9971C24.4784 32.3044 24.4582 27.9892 24.4205 15.855Z" fill="white"/>
<path d="M36.9365 22.2776C37.095 22.5078 36.9485 32.1897 37.0021 32.9995L38.3537 32.9956L38.3373 19.6903C37.9343 19.9495 37.6194 20.1824 37.2716 20.423C35.4848 21.6576 33.6722 22.8769 31.899 24.1236L31.905 25.7267C36.9365 22.2776 31.9045 25.7267 36.9365 22.2776Z" fill="white"/>
<path d="M36.9365 22.2776C37.095 22.5078 36.9485 32.1897 37.0021 32.9995L38.3537 32.9956L38.3373 19.6903C37.9343 19.9495 37.6194 20.1824 37.2716 20.423C35.4848 21.657 33.6716 22.8769 31.899 24.1236L31.905 25.7267C36.9365 22.2776 31.9045 25.7267 36.9365 22.2776Z" fill="white"/>
<path d="M31.9017 20.6329V19.1965C25.2157 15.0137 31.9017 19.1965 25.219 15C25.1955 32.9956 25.219 15.0137 25.1955 33L26.4738 32.9934C26.5324 17.2467 26.4738 33.1247 26.5324 17.3779C26.6029 17.379 31.455 20.3377 31.9017 20.6329Z" fill="white"/>
<path d="M31.9017 20.6329V19.1965C25.2157 15.0137 31.9017 19.1965 25.219 15C25.1955 32.9956 25.219 15.0137 25.1955 33L26.4738 32.9934C26.5324 17.2467 26.4738 33.1247 26.5324 17.3779C26.6034 17.379 31.455 20.3377 31.9017 20.6329Z" fill="white"/>
<path d="M17.6597 15.164L22.4381 19.8554H20.6922L17.7937 17.011L10.6402 23.9863L17.5378 31.1798L20.6512 28.3545H22.4381L17.5509 32.9956L9.47882 24.6966L8.76855 23.9863L9.3897 23.3663L17.6597 15.164Z" fill="white"/>
<path d="M17.6597 15.164L22.4381 19.8554H20.6922L17.7937 17.011L10.6402 23.9863L17.5378 31.1798L20.6512 28.3545H22.4381L17.5509 32.9956L9.47882 24.6966L8.76855 23.9863L9.3897 23.3663L17.6597 15.164Z" fill="white"/>
</svg>
